<svg width="500" height="84" viewBox="0 0 500 84" fill="none" xmlns="http://www.w3.org/2000/svg">
<path d="M15.3618 2.78448L35.118 48.7755L45.9583 25.6196L36.2726 2.78448H15.3618Z" stroke="#1AB3E6" stroke-linecap="round"/>
<path d="M77.0451 2.29123H97.3491L66.0787 75.2888H46.4509L77.0451 2.29123Z" stroke="#1AB3E6" stroke-linecap="round"/>
<path d="M123.263 2.29123H143.837V75.7888H123.263V2.29123Z" stroke="#1AB3E6" stroke-linecap="round"/>
<path d="M180.304 2.29242H238.036V18.4076H180.304V2.29242Z" stroke="#1AB3E6" stroke-linecap="round"/>
<path d="M180.304 30.7324H238.036V46.8476H180.304V30.7324Z" stroke="#1AB3E6" stroke-linecap="round"/>
<path d="M180.304 59.6724H238.036V75.7876H180.304V59.6724Z" stroke="#1AB3E6" stroke-linecap="round"/>
<path d="M265.668 2.28882L283.741 59.1712L294.292 27.5211L286.402 2.28882H265.668Z" stroke="#1AB3E6" stroke-linecap="round"/>
<path d="M317.141 2.28511L293.839 74.9949H310.995L325.674 30.7263L333.472 54.7197L342.921 26.8298L335.582 2.28511H317.141Z" stroke="#1AB3E6" stroke-linecap="round"/>
<path d="M366.263 2.28511L341.951 75.4949H361.492L385.529 2.28511H366.263Z" stroke="#1AB3E6" stroke-linecap="round"/>
<path d="M435.687 2.28511L403.118 75.4949H423.76L445.412 22.8848L466.146 75.4949H487.522L455.687 2.28511H435.687Z" stroke="#1AB3E6" stroke-linecap="round"/>
</svg>
